<svg width="27" height="28" viewBox="0 0 27 28" fill="none" xmlns="http://www.w3.org/2000/svg">
<path fill-rule="evenodd" clip-rule="evenodd" d="M9.52851 17.1641C9.63946 17.7551 9.7288 18.2898 9.84073 18.8206C9.95167 19.3397 10.2089 19.528 10.7666 19.528C14.8195 19.5319 18.8734 19.5319 22.9264 19.5319C23.0609 19.5338 23.1993 19.5357 23.3279 19.5716C23.6018 19.6473 23.7638 19.8841 23.7383 20.1539C23.7157 20.4304 23.5616 20.6148 23.2818 20.6692C23.16 20.6954 23.0324 20.6973 22.9077 20.6973C18.9706 20.6992 15.0335 20.673 11.0965 20.7167C9.91044 20.7264 8.8383 20.0326 8.59972 18.6702C8.0391 15.4688 7.40779 12.2811 6.80201 9.08948C6.46132 7.28649 6.12751 5.48254 5.76522 3.6844C5.54725 2.60435 4.6322 1.89888 3.52177 1.89888C2.57432 1.89888 1.62589 1.89985 0.678434 1.89791C0.247417 1.89597 0 1.68539 0 1.32344C0 0.971185 0.23269 0.747995 0.642107 0.745084C1.6573 0.742173 2.67446 0.717913 3.68868 0.76061C5.26253 0.828538 6.69303 2.11625 6.96499 3.64947C7.05238 4.1366 7.17412 4.62083 7.23401 5.11088C7.26936 5.3952 7.39601 5.43693 7.64834 5.43596C9.21433 5.42722 10.7813 5.43208 12.3493 5.43208C16.6722 5.43208 20.9981 5.4311 25.322 5.43208C26.5748 5.43208 27.2513 6.32289 26.9135 7.51745C26.2616 9.82019 25.6175 12.1258 24.9656 14.4286C24.5346 15.956 22.9205 17.1612 21.3142 17.1631C17.4999 17.1631 13.6904 17.1631 9.87902 17.1631C9.77495 17.1641 9.66989 17.1641 9.52851 17.1641ZM7.56096 6.60334C7.56096 6.67418 7.55507 6.71299 7.56194 6.7489C7.78874 7.9124 8.01652 9.07492 8.24528 10.2394C8.60757 12.0802 8.97281 13.9201 9.3292 15.7629C9.36357 15.9434 9.42051 16.0249 9.62179 16.0249C13.5471 16.019 17.4724 16.0287 21.3996 16.0132C22.5287 16.0093 23.5135 15.2437 23.8198 14.1685C24.5002 11.7862 25.1698 9.40001 25.8394 7.01381C25.9454 6.64215 25.9091 6.60237 25.5134 6.60237C19.6353 6.60237 13.7562 6.60237 7.8771 6.60237C7.77303 6.60334 7.66994 6.60334 7.56096 6.60334Z" fill="black"/>
<path fill-rule="evenodd" clip-rule="evenodd" d="M12.4455 24.8262C12.4416 26.3672 11.0425 27.7432 9.4883 27.7355C7.91443 27.7316 6.50552 26.3371 6.51926 24.7961C6.53301 23.2726 7.94782 21.883 9.48928 21.8772C11.0455 21.8733 12.4495 23.2736 12.4455 24.8262ZM9.49419 23.0504C8.42007 23.0485 7.71218 23.7442 7.70531 24.8059C7.69843 25.8636 8.41124 26.5797 9.47259 26.5817C10.5575 26.5836 11.2772 25.8801 11.2782 24.8117C11.2791 23.7588 10.5624 23.0504 9.49419 23.0504Z" fill="black"/>
<path fill-rule="evenodd" clip-rule="evenodd" d="M23.1639 27.7355C21.5989 27.7374 20.2116 26.3769 20.2037 24.8282C20.1988 23.2775 21.6009 21.8753 23.157 21.8772C24.7014 21.883 26.1191 23.2755 26.1211 24.7942C26.125 26.3517 24.7358 27.7335 23.1639 27.7355ZM23.1433 23.0504C22.0741 23.0562 21.3613 23.7666 21.3652 24.8204C21.3672 25.8762 22.1026 26.5885 23.1855 26.5807C24.2331 26.5749 24.9675 25.8306 24.9527 24.7913C24.937 23.7384 24.2154 23.0446 23.1433 23.0504Z" fill="black"/>
</svg>
