<svg width="59" height="18" viewBox="0 0 59 18" fill="none" xmlns="http://www.w3.org/2000/svg">
<path d="M27.0243 7.05939C26.7277 7.20789 26.134 7.35639 25.372 7.35639C23.6083 7.35639 22.2809 6.24075 22.2809 4.18632C22.2809 2.22504 23.6083 0.89502 25.5483 0.89502C26.33 0.89502 26.8207 1.06188 27.034 1.17258L26.8402 1.83489C26.5336 1.68531 26.0973 1.57461 25.5775 1.57461C24.1107 1.57461 23.136 2.5134 23.136 4.15716C23.136 5.69238 24.0182 6.67734 25.5405 6.67734C26.0332 6.67734 26.5336 6.57555 26.8596 6.41733L27.0243 7.05939Z" fill="black"/>
<path d="M29.0857 5.29236L28.4361 7.26228H27.6005L29.726 0.99585H30.701L32.8362 7.26228H31.9731L31.3047 5.29236H29.0857ZM31.1376 4.66002L30.5266 2.85615C30.385 2.44818 30.2942 2.07531 30.199 1.71243H30.1817C30.0881 2.0853 29.9873 2.46573 29.8654 2.84724L29.2544 4.66002H31.1376Z" fill="black"/>
<path d="M33.6448 6.27771C34.0077 6.50127 34.537 6.6873 35.0935 6.6873C35.9194 6.6873 36.4042 6.25044 36.4042 5.61756C36.4042 5.0322 36.0691 4.69821 35.2232 4.37205C34.2032 4.00971 33.5731 3.4797 33.5731 2.59626C33.5731 1.62129 34.3796 0.895264 35.5959 0.895264C36.2357 0.895264 36.7014 1.04268 36.9804 1.20198L36.7556 1.86105C36.5517 1.74954 36.1346 1.56405 35.5668 1.56405C34.7134 1.56405 34.3877 2.0757 34.3877 2.50284C34.3877 3.0882 34.7697 3.37656 35.6307 3.71163C36.6895 4.12041 37.2266 4.63098 37.2266 5.55168C37.2266 6.51882 36.5129 7.35555 35.0353 7.35555C34.4343 7.35555 33.7729 7.17924 33.4391 6.95676L33.6448 6.27771Z" fill="black"/>
<path d="M39.1423 0.997559V3.61899H42.17V0.997559H42.9843V7.26399H42.17V4.32612H39.1423V7.26426H38.334V0.997559H39.1423Z" fill="black"/>
<path d="M51.7029 4.0659C51.7029 6.22131 50.3941 7.36503 48.7982 7.36503C47.1437 7.36503 45.984 6.08253 45.984 4.18632C45.984 2.19777 47.2192 0.89502 48.8909 0.89502C50.5993 0.89475 51.7029 2.2056 51.7029 4.0659ZM46.8471 4.16796C46.8471 5.50608 47.5705 6.70569 48.8443 6.70569C50.1261 6.70569 50.8511 5.52444 50.8511 4.10289C50.8511 2.8563 50.2 1.55517 48.854 1.55517C47.516 1.55517 46.8471 2.79204 46.8471 4.16796Z" fill="black"/>
<path d="M52.7539 7.2621V0.997559H53.6359L55.6414 4.16763C56.1071 4.90257 56.4673 5.56272 56.7663 6.20343L56.7836 6.19371C56.71 5.35698 56.6903 4.59477 56.6903 3.61899V0.997559H57.4523V7.26399H56.6342L54.6484 4.0842C54.2121 3.38706 53.7931 2.67156 53.4768 1.99386L53.4496 2.00169C53.4962 2.79306 53.5156 3.54636 53.5156 4.58613V7.26399H52.7537V7.2621H52.7539Z" fill="black"/>
<path d="M22.6515 10.9246C23.1441 10.8509 23.7281 10.7944 24.3701 10.7944C25.5314 10.7944 26.3556 11.0644 26.9043 11.5753C27.4617 12.0861 27.7863 12.8121 27.7863 13.8257C27.7863 14.8471 27.4703 15.6841 26.8847 16.2609C26.3001 16.8476 25.3354 17.1621 24.1183 17.1621C23.5423 17.1621 23.0605 17.1348 22.6512 17.0884V10.9246H22.6515ZM23.4593 16.4669C23.6639 16.5039 23.9605 16.5136 24.2765 16.5136C26.0024 16.5136 26.9413 15.5464 26.9413 13.8549C26.951 12.375 26.1154 11.4373 24.4065 11.4373C23.9899 11.4373 23.6736 11.4743 23.4593 11.521V16.4669Z" fill="black"/>
<path d="M32.0764 14.1694H29.6427V16.4274H32.3536V17.1075H28.8357V10.8411H32.2158V11.5209H29.6424V13.4998H32.0761V14.1694H32.0764Z" fill="black"/>
<path d="M33.4027 10.8411H34.2094V16.4274H36.8834V17.1075H33.4027V10.8411Z" fill="black"/>
<path d="M38.5921 10.8411V17.1075H37.785V10.8411H38.5921Z" fill="black"/>
<path d="M41.3804 17.1075L39.3365 10.8411H40.2093L41.1846 13.9266C41.4523 14.7736 41.6848 15.5366 41.8517 16.2705H41.8711C42.0477 15.5464 42.3073 14.7563 42.5867 13.9363L43.6436 10.8411H44.5083L42.2704 17.1075H41.3804Z" fill="black"/>
<path d="M48.4255 14.1694H45.9934V16.4274H48.7046V17.1075H45.1848V10.8411H48.563V11.5209H45.9913V13.4998H48.4253V14.1694H48.4255Z" fill="black"/>
<path d="M49.754 10.9246C50.1633 10.8409 50.747 10.7944 51.3052 10.7944C52.1683 10.7944 52.7267 10.9518 53.1147 11.3053C53.4307 11.5847 53.6073 12.0121 53.6073 12.4957C53.6073 13.3227 53.0874 13.8724 52.4279 14.0938V14.1211C52.9108 14.288 53.1977 14.7345 53.3471 15.3852C53.5507 16.2592 53.7003 16.8632 53.83 17.1057H52.9939C52.8911 16.9272 52.7536 16.3894 52.5751 15.6085C52.3907 14.7445 52.0574 14.4203 51.3246 14.3908H50.5621V17.1038H49.7556V10.9246H49.754ZM50.5623 13.7793H51.3869C52.2494 13.7793 52.7984 13.3054 52.7984 12.5889C52.7984 11.7813 52.2146 11.4276 51.3596 11.4179C50.9697 11.4179 50.6923 11.4549 50.5623 11.4937V13.7793Z" fill="black"/>
<path d="M56.0391 17.1075V14.4469L54.0609 10.8411H54.98L55.8641 12.5691C56.1049 13.0451 56.291 13.4255 56.4848 13.8624H56.5024C56.6806 13.4528 56.8939 13.0451 57.1346 12.5691L58.0363 10.8411H58.9536L56.8572 14.4372V17.1075H56.0391Z" fill="black"/>
<path d="M17.8687 13.2255C17.6244 13.0076 17.3167 12.9069 17.0045 12.942C16.4812 13.0022 15.7933 13.1437 15.0669 13.2933C14.086 13.4953 13.0698 13.705 12.294 13.7558C11.6213 13.7963 10.3996 13.6219 10.038 13.4334C9.79348 13.3033 9.65678 13.1478 9.5794 13.0079H11.0869C11.709 13.0079 12.215 12.5014 12.215 11.8777V10.9924C12.215 10.3689 11.709 9.86241 11.0869 9.86241H6.95777C6.78251 9.85809 4.67534 9.81759 3.21609 11.0642C2.95697 11.2856 2.75152 11.4935 2.58866 11.6836C2.41582 11.464 2.14862 11.3266 1.85095 11.3266H0.506294C0.281152 11.3266 0.100769 11.5089 0.100769 11.7324V17.4529C0.100769 17.5598 0.143368 17.6646 0.218865 17.7383C0.294631 17.8161 0.397631 17.8587 0.506023 17.8587H1.85068C2.37133 17.8587 2.79601 17.4335 2.79601 16.9129V16.6003C3.19749 16.6259 4.111 16.7266 6.04129 17.0879C8.32102 17.5169 9.74414 17.6649 10.8653 17.6627C11.6682 17.6627 12.3167 17.589 13.0137 17.4896C13.8768 17.3695 14.9621 17.0606 15.9187 16.7906C16.3609 16.6645 16.7796 16.546 17.1501 16.4528C18.1478 16.2004 18.2961 15.5691 18.2961 15.216V14.1865C18.2961 13.8214 18.137 13.4642 17.8687 13.2255ZM1.98657 16.9129C1.98657 16.9885 1.92509 17.049 1.85068 17.049H0.909121V12.1382H1.85068C1.92509 12.1382 1.98657 12.2001 1.98657 12.274V16.9129ZM17.4885 15.2179C17.4885 15.3032 17.4885 15.5327 16.9525 15.6685C16.5701 15.7635 16.1476 15.8839 15.6979 16.0117C14.7658 16.276 13.7099 16.5751 12.9023 16.6896C11.3115 16.9151 9.98492 17.0061 6.19148 16.2957C4.24096 15.9285 3.27299 15.8175 2.79601 15.7927V12.7846C2.81192 12.7673 2.82513 12.7476 2.83672 12.7266C2.93945 12.5362 3.19559 12.1493 3.74214 11.6817C4.99026 10.6176 6.91652 10.6719 6.93701 10.674C6.94213 10.674 6.94672 10.674 6.95292 10.674H11.0891C11.2646 10.674 11.408 10.8174 11.408 10.9924V11.8798C11.408 12.0564 11.2649 12.1984 11.0891 12.1984H6.95292C6.72966 12.1984 6.5482 12.3791 6.5482 12.6043C6.5482 12.8257 6.72966 13.0079 6.95292 13.0079H8.72413C8.80771 13.3403 9.03636 13.8201 9.66568 14.1481C10.2405 14.4511 11.6669 14.6066 12.3464 14.5618C13.1822 14.5094 14.2246 14.2955 15.2338 14.086C15.9419 13.9402 16.6127 13.8041 17.1013 13.7458C17.2043 13.7345 17.2847 13.7847 17.3329 13.8298C17.4308 13.9151 17.492 14.055 17.492 14.1867V15.2179H17.4885Z" fill="black"/>
<path d="M17.6331 0.700439H3.42704C2.85515 0.700439 2.39056 1.16646 2.39056 1.7394V8.40975C2.39056 8.98188 2.85515 9.44844 3.42704 9.44844H17.6331C18.205 9.44844 18.6707 8.98161 18.6707 8.40975V1.7394C18.6707 1.16646 18.205 0.700439 17.6331 0.700439ZM15.6268 8.6379H5.43363C5.32686 7.431 4.39016 6.45927 3.19758 6.30078V3.7374C4.35322 3.58404 5.26862 2.6655 5.42177 1.51098H15.6376C15.7918 2.66739 16.7072 3.58377 17.8618 3.7374V6.30078C16.6703 6.459 15.7325 7.431 15.6268 8.6379ZM17.8618 1.7394V2.91795C17.1551 2.77809 16.5959 2.22 16.4578 1.51125H17.6331C17.759 1.51125 17.8618 1.61331 17.8618 1.7394ZM3.4273 1.51125H4.60317C4.46458 2.22 3.90724 2.77836 3.19973 2.91795V1.7394C3.19757 1.61331 3.30138 1.51125 3.4273 1.51125ZM3.19758 8.40975V7.11996C3.9423 7.26576 4.522 7.87758 4.62096 8.63682H3.42596C3.30139 8.6379 3.19758 8.53584 3.19758 8.40975ZM17.6331 8.6379H16.4381C16.5379 7.87758 17.1171 7.26684 17.8615 7.12104V8.40948C17.8618 8.53584 17.759 8.6379 17.6331 8.6379Z" fill="black"/>
<path d="M10.5508 2.177C8.95489 2.177 7.65796 3.47705 7.65796 5.0741C7.65796 6.67304 8.95516 7.9712 10.5508 7.9712C12.1449 7.9712 13.444 6.67304 13.444 5.0741C13.444 3.47624 12.1471 2.177 10.5508 2.177ZM10.5508 7.16174C9.40086 7.16174 8.46712 6.22484 8.46712 5.07437C8.46712 3.9239 9.40086 2.98781 10.5508 2.98781C11.7008 2.98781 12.6354 3.9239 12.6354 5.07437C12.6354 6.22511 11.7005 7.16174 10.5508 7.16174Z" fill="black"/>
<path d="M5.89491 3.82861C5.20816 3.82861 4.65002 4.3867 4.65002 5.07439C4.65002 5.76073 5.20924 6.32017 5.89491 6.32017C6.57951 6.32017 7.13792 5.76073 7.13792 5.07439C7.13792 4.38697 6.58031 3.82861 5.89491 3.82861ZM5.89491 5.51044C5.65521 5.51044 5.45973 5.31415 5.45973 5.07439C5.45973 4.83382 5.65548 4.63861 5.89491 4.63861C6.13327 4.63861 6.32929 4.83463 6.32929 5.07439C6.32929 5.31415 6.13542 5.51044 5.89491 5.51044Z" fill="black"/>
<path d="M15.2069 3.82861C14.5223 3.82861 13.9639 4.3867 13.9639 5.07439C13.9639 5.76073 14.5223 6.32017 15.2069 6.32017C15.8934 6.32017 16.4518 5.76073 16.4518 5.07439C16.4518 4.38697 15.8934 3.82861 15.2069 3.82861ZM15.2069 5.51044C14.9672 5.51044 14.7728 5.31415 14.7728 5.07439C14.7728 4.83382 14.9674 4.63861 15.2069 4.63861C15.4474 4.63861 15.6434 4.83463 15.6434 5.07439C15.6434 5.31415 15.4474 5.51044 15.2069 5.51044Z" fill="black"/>
</svg>
