<svg width="44" height="27" viewBox="0 0 44 27" fill="none" xmlns="http://www.w3.org/2000/svg">
<path d="M43.3205 2.53223H0.179443V24.1322H43.3205V2.53223Z" fill="#003473"/>
<path d="M40.0849 0.102051C37.9279 0.102051 15.0903 0.102051 2.3365 0.102051C1.25797 0.102051 0.179443 1.18205 0.179443 2.26205V5.50205H43.3205C43.3205 5.50205 43.3205 10.5162 43.3205 3.34205C43.3205 1.18205 42.242 0.102051 40.0849 0.102051Z" fill="#003473"/>
<path d="M0.179443 21.7021C0.179443 21.7021 0.179443 21.7021 0.179443 23.8621C0.179443 26.0221 1.25797 27.1021 3.41502 27.1021C15.4468 27.1021 37.9279 27.1021 40.0849 27.1021C42.242 27.1021 43.3205 26.0221 43.3205 23.8621V21.7021H0.179443Z" fill="#003473"/>
<path d="M13.9155 25.218C20.361 25.218 25.586 19.9671 25.586 13.4897C25.586 7.0124 20.361 1.76147 13.9155 1.76147C7.47011 1.76147 2.24506 7.0124 2.24506 13.4897C2.24506 19.9671 7.47011 25.218 13.9155 25.218Z" fill="#ED1C2E"/>
<path d="M29.5844 1.76074C26.5683 1.76074 23.821 2.9104 21.7492 4.79662C21.3277 5.18056 20.9346 5.59582 20.5717 6.03835H22.9288C23.2521 6.43201 23.5473 6.847 23.8186 7.28062H19.6811C19.4336 7.67968 19.2087 8.09305 19.0086 8.52235H24.491C24.6782 8.92492 24.8432 9.33856 24.985 9.76381H18.5152C18.3801 10.1694 18.2663 10.5833 18.1757 11.0061H25.3245C25.4951 11.8069 25.586 12.6369 25.586 13.4901C25.586 14.792 25.3754 16.0446 24.9855 17.2158H18.5152C18.6562 17.6408 18.8218 18.0558 19.0089 18.4584H24.4913C24.2918 18.8871 24.0669 19.301 23.818 19.7003H19.6813C19.9515 20.1334 20.2487 20.5484 20.5717 20.9418H22.9288C22.5659 21.3838 22.1719 21.7993 21.7497 22.1844C23.821 24.07 26.5672 25.2197 29.5841 25.2197C36.0294 25.2197 41.2549 19.969 41.2549 13.4914C41.2549 7.01386 36.0299 1.76074 29.5844 1.76074Z" fill="#FCB131"/>
<path d="M39.6996 20.0272C39.6996 19.8185 39.8686 19.6492 40.0768 19.6492C40.2855 19.6492 40.4532 19.8185 40.4532 20.0272C40.4532 20.2364 40.2855 20.4062 40.0768 20.4062C39.8686 20.4062 39.6996 20.2364 39.6996 20.0272ZM40.0768 20.315C40.2345 20.315 40.3629 20.1862 40.3629 20.0272C40.3629 19.8673 40.2345 19.7399 40.0768 19.7399C39.9191 19.7399 39.7902 19.8676 39.7902 20.0272C39.7902 20.1865 39.9191 20.315 40.0768 20.315ZM40.0258 20.1932H39.9485V19.8611H40.0887C40.1186 19.8611 40.1477 19.8611 40.1739 19.8771C40.2011 19.896 40.2159 19.9281 40.2159 19.9605C40.2159 19.9985 40.1933 20.0334 40.158 20.0469L40.2189 20.1935H40.134L40.0825 20.0617H40.0261V20.1932H40.0258ZM40.0258 20.0045H40.069C40.0846 20.0045 40.1013 20.0056 40.117 19.9983C40.1288 19.9888 40.1356 19.9745 40.1356 19.9597C40.1356 19.9475 40.1269 19.9321 40.117 19.9259C40.1032 19.9176 40.0822 19.9197 40.0668 19.9197H40.0258V20.0045Z" fill="#FCB131"/>
<path d="M11.1901 14.7733C11.0577 14.7579 10.999 14.7538 10.9078 14.7538C10.1898 14.7538 9.82607 15.0011 9.82607 15.4906C9.82607 15.7922 10.0038 15.9837 10.2804 15.9837C10.7965 15.9829 11.1683 15.4893 11.1901 14.7733ZM12.1123 16.9289C11.9435 16.9289 11.0615 16.9289 11.0615 16.9289L11.0863 16.4275C10.766 16.8236 10.3392 17.0129 9.75812 17.0129C9.07191 17.0129 8.60114 16.474 8.60114 15.6913C8.60114 14.5132 9.41974 13.8261 10.8256 13.8261C10.9696 13.8261 11.1535 13.8393 11.3419 13.8636C11.3813 13.7038 11.3921 13.6357 11.3921 13.5496C11.3921 13.2291 11.1718 13.1095 10.5797 13.1095C9.95954 13.1022 9.44805 13.2583 9.23854 13.3277C9.25122 13.2469 9.41381 12.2398 9.41381 12.2398C10.045 12.053 10.4616 11.9839 10.9302 11.9839C12.0176 11.9839 12.5944 12.4742 12.593 13.4022C12.5955 13.6509 12.5539 13.9573 12.4906 14.3607C12.38 15.0605 12.1441 16.5636 12.1123 16.9289Z" fill="#003473"/>
<path d="M8.07048 16.9289H6.80402L7.52959 12.3565L5.90884 16.9289H5.04521L4.9387 12.3824L4.17591 16.9289H2.98981L3.9807 10.9795H5.8026L5.91315 14.3102L7.02403 10.9795H9.0514L8.07048 16.9289Z" fill="#003473"/>
<path d="M31.1496 14.7733C31.0175 14.7579 30.9587 14.7538 30.8676 14.7538C30.1488 14.7538 29.7869 15.0011 29.7869 15.4906C29.7869 15.7922 29.9638 15.9837 30.2402 15.9837C30.7565 15.9829 31.1283 15.4893 31.1496 14.7733ZM32.0729 16.9289C31.9033 16.9289 31.0224 16.9289 31.0224 16.9289L31.0464 16.4275C30.7255 16.8236 30.299 17.0129 29.7192 17.0129C29.0317 17.0129 28.5609 16.474 28.5609 15.6913C28.5609 14.5132 29.3801 13.8261 30.7865 13.8261C30.9288 13.8261 31.1124 13.8393 31.3015 13.8636C31.3408 13.7038 31.3516 13.6357 31.3516 13.5496C31.3516 13.2291 31.1313 13.1095 30.5395 13.1095C29.919 13.1022 29.4078 13.2583 29.197 13.3277C29.2102 13.2469 29.3741 12.2398 29.3741 12.2398C30.0053 12.053 30.4216 11.9839 30.89 11.9839C31.9785 11.9839 32.5533 12.4742 32.5523 13.4022C32.5544 13.6509 32.5137 13.9573 32.4495 14.3607C32.3401 15.0605 32.1041 16.5636 32.0729 16.9289Z" fill="#003473"/>
<path d="M17.7432 16.8563C17.3965 16.9654 17.126 17.014 16.8332 17.014C16.1856 17.014 15.8318 16.64 15.8318 15.9507C15.8232 15.7371 15.9259 15.1739 16.006 14.6609C16.0791 14.2095 16.5558 11.3596 16.5558 11.3596H17.815L17.668 12.0919H18.4286L18.2566 13.2553H17.4936C17.3474 14.1741 17.1387 15.3205 17.1368 15.4725C17.1368 15.722 17.2689 15.8311 17.5701 15.8311C17.7146 15.8311 17.8265 15.8162 17.9118 15.7846L17.7432 16.8563Z" fill="#003473"/>
<path d="M21.6044 16.8166C21.1713 16.9499 20.7547 17.0147 20.312 17.0137C18.9021 17.012 18.1674 16.2712 18.1674 14.8553C18.1674 13.2023 19.1022 11.9844 20.3724 11.9844C21.4105 11.9844 22.0735 12.6656 22.0735 13.7345C22.0735 14.0904 22.0288 14.436 21.9182 14.9247H19.4104C19.3257 15.6267 19.7722 15.9183 20.5059 15.9183C20.9553 15.9183 21.3625 15.8249 21.8147 15.614L21.6044 16.8166ZM20.8963 13.9484C20.9036 13.8471 21.03 13.0849 20.3098 13.0849C19.9092 13.0849 19.6223 13.3916 19.5058 13.9484H20.8963Z" fill="#003473"/>
<path d="M12.8721 13.6208C12.8721 14.232 13.1681 14.6543 13.8371 14.9718C14.3502 15.2135 14.43 15.2856 14.43 15.5056C14.43 15.8072 14.2035 15.9438 13.7025 15.9438C13.3245 15.9438 12.9727 15.8842 12.5666 15.7524C12.5666 15.7524 12.401 16.8186 12.3929 16.8699C12.6801 16.9326 12.9379 16.9906 13.7106 17.0133C15.048 17.0133 15.6655 16.5017 15.6655 15.396C15.6655 14.731 15.4066 14.3414 14.7722 14.0471C14.2405 13.803 14.1795 13.7482 14.1795 13.5214C14.1795 13.2598 14.3906 13.1269 14.7991 13.1269C15.048 13.1269 15.3883 13.1534 15.7099 13.1993L15.8895 12.0774C15.5625 12.0253 15.0642 11.9827 14.7749 11.9827C13.358 11.9835 12.8678 12.7271 12.8721 13.6208Z" fill="#003473"/>
<path d="M27.7668 12.1106C28.1187 12.1106 28.4466 12.2032 28.8987 12.4324L29.1061 11.1408C28.92 11.067 28.267 10.6372 27.714 10.6372C26.8668 10.6372 26.1485 11.0611 25.6448 11.7582C24.9093 11.5136 24.6073 12.0083 24.2365 12.5007L23.9071 12.5772C23.9321 12.4152 23.9548 12.2537 23.947 12.0909H22.7838C22.6255 13.5886 22.3429 15.1041 22.1234 16.6023L22.0657 16.9287H23.3325C23.5449 15.5477 23.6598 14.6626 23.7313 14.0638L24.2077 13.7986C24.2808 13.5313 24.5027 13.4417 24.9497 13.4517C24.8915 13.767 24.8591 14.0991 24.8591 14.4442C24.8591 16.0278 25.7106 17.013 27.0741 17.013C27.4249 17.013 27.7272 16.9665 28.1939 16.8386L28.4153 15.4832C27.9949 15.69 27.652 15.788 27.3387 15.788C26.6015 15.788 26.1571 15.2418 26.1571 14.3389C26.1579 13.0289 26.8204 12.1106 27.7668 12.1106Z" fill="#003473"/>
<path d="M38.4938 10.9795L38.2113 12.6983C37.8661 12.2407 37.4935 11.9091 37.003 11.9091C36.3632 11.9091 35.7819 12.3959 35.4006 13.113C34.8697 13.0031 34.3221 12.8147 34.3221 12.8147L34.3213 12.8193C34.3631 12.4186 34.3819 12.1745 34.3768 12.0914H33.2134C33.0564 13.5896 32.7733 15.1051 32.5544 16.6044L32.4956 16.9303H33.7637C33.9349 15.8138 34.0654 14.8853 34.1622 14.1496C34.5947 13.7556 34.8128 13.4144 35.2496 13.436C35.0552 13.9074 34.9422 14.449 34.9422 15.0057C34.9422 16.2145 35.5508 17.0129 36.4727 17.0129C36.9372 17.0129 37.2937 16.852 37.6404 16.4783L37.5817 16.9287H38.7804L39.7452 10.9798H38.4938V10.9795ZM36.9092 15.8117C36.4783 15.8117 36.2594 15.4896 36.2594 14.8572C36.2594 13.906 36.6676 13.2318 37.2425 13.2318C37.6779 13.2318 37.9139 13.5639 37.9139 14.179C37.9139 15.1391 37.4994 15.8117 36.9092 15.8117Z" fill="#003473"/>
<path d="M8.43528 16.5764H7.16828L7.89439 12.0036L6.27391 16.5764H5.41001L5.30324 12.0301L4.54072 16.5764H3.35461L4.34578 10.6274H6.16794L6.2181 14.3102L7.44762 10.6274H9.41539L8.43528 16.5764Z" fill="white"/>
<path d="M11.5555 14.4216C11.4228 14.4056 11.364 14.4021 11.2732 14.4021C10.5554 14.4021 10.1917 14.6484 10.1917 15.1373C10.1917 15.4395 10.3688 15.6309 10.6455 15.6309C11.1616 15.6309 11.5334 15.1371 11.5555 14.4216ZM12.4774 16.5764C12.3078 16.5764 11.4271 16.5764 11.4271 16.5764L11.4511 16.075C11.1311 16.4711 10.704 16.6604 10.1229 16.6604C9.43672 16.6604 8.96594 16.1209 8.96594 15.3385C8.96594 14.1605 9.78509 13.4749 11.1909 13.4749C11.3338 13.4749 11.518 13.4871 11.7073 13.5119C11.7464 13.3515 11.7569 13.2835 11.7569 13.1968C11.7569 12.8769 11.5358 12.7578 10.9442 12.7578C10.3238 12.7508 9.81313 12.9055 9.60254 12.9749C9.61549 12.895 9.77834 11.8879 9.77834 11.8879C10.4098 11.7018 10.8264 11.6311 11.2948 11.6311C12.383 11.6311 12.9589 12.1222 12.9581 13.0491C12.96 13.2984 12.9187 13.6062 12.8554 14.0079C12.7454 14.7075 12.5092 16.2103 12.4774 16.5764Z" fill="white"/>
<path d="M29.4715 10.7887L29.2636 12.079C28.812 11.8506 28.4828 11.7583 28.1322 11.7583C27.1858 11.7583 26.5225 12.6766 26.5225 13.9869C26.5225 14.8898 26.968 15.4354 27.7043 15.4354C28.0166 15.4354 28.3617 15.3385 28.7804 15.13L28.5583 16.4857C28.0921 16.614 27.7906 16.6601 27.4395 16.6601C26.0752 16.6601 25.2253 15.6741 25.2253 14.0919C25.2253 11.9646 26.4009 10.4788 28.0791 10.4788C28.6316 10.4788 29.2855 10.7142 29.4715 10.7887Z" fill="white"/>
<path d="M31.5145 14.4216C31.3827 14.4056 31.3236 14.4021 31.2319 14.4021C30.5147 14.4021 30.1518 14.6484 30.1518 15.1373C30.1518 15.4395 30.3297 15.6309 30.6048 15.6309C31.1214 15.6309 31.4937 15.1371 31.5145 14.4216ZM32.4372 16.5764C32.2687 16.5764 31.3872 16.5764 31.3872 16.5764L31.4107 16.075C31.0907 16.4711 30.6636 16.6604 30.0838 16.6604C29.3957 16.6604 28.9258 16.1209 28.9258 15.3385C28.9258 14.1605 29.7436 13.4749 31.1494 13.4749C31.2937 13.4749 31.4768 13.4871 31.666 13.5119C31.7051 13.3515 31.7162 13.2835 31.7162 13.1968C31.7162 12.8769 31.4956 12.7578 30.903 12.7578C30.2834 12.7508 29.7732 12.9055 29.5613 12.9749C29.5753 12.895 29.7376 11.8879 29.7376 11.8879C30.3697 11.7018 30.7862 11.6311 31.254 11.6311C32.3415 11.6311 32.9188 12.1222 32.9169 13.0491C32.9198 13.2984 32.8786 13.6062 32.8149 14.0079C32.7055 14.7075 32.4695 16.2103 32.4372 16.5764Z" fill="white"/>
<path d="M18.108 16.503C17.761 16.6137 17.4906 16.6606 17.1972 16.6606C16.5501 16.6606 16.1963 16.2861 16.1963 15.5979C16.1874 15.3833 16.2896 14.8222 16.3708 14.3081C16.4439 13.8561 16.9198 11.0068 16.9198 11.0068H18.1792L18.0317 11.7385H18.678L18.506 12.9012H17.8565C17.7111 13.8224 17.5024 14.9677 17.5 15.1192C17.5 15.3698 17.6329 15.4778 17.9341 15.4778C18.0781 15.4778 18.1897 15.464 18.2755 15.4324L18.108 16.503Z" fill="white"/>
<path d="M21.97 16.4644C21.5375 16.5973 21.1191 16.6607 20.6766 16.6602C19.2667 16.6586 18.5325 15.9188 18.5325 14.5018C18.5325 12.8481 19.4667 11.6304 20.7364 11.6304C21.7753 11.6304 22.4386 12.3127 22.4386 13.3819C22.4386 13.7364 22.3923 14.0831 22.2836 14.5707H19.7755C19.6905 15.2738 20.1376 15.5664 20.8699 15.5664C21.3207 15.5664 21.7279 15.4725 22.1787 15.2611L21.97 16.4644ZM21.2614 13.5954C21.2684 13.4947 21.3952 12.7317 20.6755 12.7317C20.274 12.7317 19.9869 13.0395 19.8704 13.5954H21.2614Z" fill="white"/>
<path d="M13.2366 13.269C13.2366 13.8813 13.5321 14.3015 14.2016 14.6195C14.7136 14.8614 14.7943 14.9338 14.7943 15.1533C14.7943 15.4554 14.5678 15.5915 14.0663 15.5915C13.6882 15.5915 13.3374 15.5324 12.9308 15.4006C12.9308 15.4006 12.7647 16.4669 12.7567 16.5176C13.0444 16.5808 13.3016 16.6383 14.076 16.661C15.4125 16.661 16.0297 16.1493 16.0297 15.0442C16.0297 14.3792 15.7714 13.9891 15.1364 13.6964C14.6055 13.4507 14.5443 13.3959 14.5443 13.1707C14.5443 12.9085 14.7554 12.7741 15.1645 12.7741C15.4128 12.7741 15.7528 12.8021 16.0753 12.8472L16.2549 11.7257C15.9273 11.673 15.4295 11.6306 15.1397 11.6306C13.723 11.6303 13.2328 12.3742 13.2366 13.269Z" fill="white"/>
<path d="M39.1428 16.5765H37.9443L38.0039 16.1256C37.656 16.4991 37.3001 16.6602 36.835 16.6602C35.915 16.6602 35.3057 15.8629 35.3057 14.6525C35.3057 13.0447 36.2502 11.6868 37.3665 11.6868C37.8577 11.6868 38.2304 11.8888 38.5763 12.347L38.8581 10.6282H40.1073L39.1428 16.5765ZM37.274 15.459C37.8642 15.459 38.2781 14.7867 38.2781 13.8285C38.2781 13.2137 38.0422 12.8797 37.6072 12.8797C37.0319 12.8797 36.6244 13.5536 36.6244 14.5051C36.6242 15.1383 36.8428 15.459 37.274 15.459Z" fill="white"/>
<path d="M33.5782 11.739C33.4199 13.2359 33.1381 14.7524 32.9181 16.2507L32.8604 16.5766H34.1271C34.5804 13.6182 34.6896 13.0412 35.4006 13.113C35.5144 12.5079 35.725 11.9777 35.8814 11.7104C35.3507 11.5991 35.0552 11.9004 34.6661 12.4734C34.6971 12.2261 34.7527 11.9849 34.7424 11.7398L33.5782 11.739Z" fill="white"/>
<path d="M23.1486 11.739C22.9897 13.2359 22.7072 14.7524 22.4871 16.2507L22.4294 16.5766H23.697C24.1508 13.6182 24.2594 13.0412 24.9697 13.113C25.0834 12.5079 25.294 11.9777 25.4512 11.7104C24.9208 11.5991 24.624 11.9004 24.2365 12.4734C24.267 12.2261 24.3231 11.9849 24.3112 11.7398L23.1486 11.739Z" fill="white"/>
<path d="M39.6997 16.1971C39.6997 15.9874 39.8688 15.8186 40.0761 15.8186C40.2848 15.8186 40.4528 15.9874 40.4528 16.1971C40.4528 16.4059 40.2848 16.5762 40.0761 16.5762C39.8688 16.5765 39.6997 16.4061 39.6997 16.1971ZM40.0758 16.4852C40.2347 16.4852 40.3627 16.3559 40.3627 16.1974C40.3627 16.0392 40.2344 15.9096 40.0758 15.9096C39.9178 15.9096 39.7895 16.0392 39.7895 16.1974C39.7898 16.3559 39.9178 16.4852 40.0758 16.4852ZM40.0252 16.3629H39.9486V16.0308H40.0888C40.1187 16.0308 40.1473 16.0319 40.1732 16.0478C40.2012 16.0657 40.2155 16.0981 40.2155 16.1313C40.2155 16.1688 40.1937 16.2042 40.1584 16.2171L40.2193 16.3632H40.1333L40.0823 16.2314H40.0257V16.3629H40.0252ZM40.0252 16.1745H40.068C40.0834 16.1745 40.1015 16.1766 40.1152 16.1683C40.1282 16.1593 40.1346 16.1445 40.1346 16.1302C40.1346 16.1175 40.1271 16.1032 40.1171 16.0959C40.1033 16.087 40.0818 16.0897 40.0669 16.0897H40.0252V16.1745Z" fill="white"/>
</svg>
